Coordinates
version=1
nRows=38
nColumns=12
inDegrees=yes

Units are S.I. units (second, meters, Newtons, ...)
Angles are in degrees

endheader
time	SC_y	SC_z	SC_x	AC_y	AC_z	AC_x	GH_y	GH_z	GH_yy	EL_x	PS_y
       0.0              -45.39          31.11          57.72          57.83         -1.084         -15.28          131.4          13.73          176.5          120.7          87.28
  0.007084              -45.39           31.1          57.71          57.83         -1.085         -15.28          131.3          13.74          176.5          120.7          87.27
   0.01417              -45.39           31.1          57.71          57.83         -1.086         -15.28          131.3          13.74          176.4          120.6          87.27
   0.02125              -45.39          31.09          57.71          57.84         -1.087         -15.28          131.3          13.75          176.4          120.6          87.26
   0.02834               -45.4          31.09           57.7          57.84         -1.088         -15.28          131.2          13.75          176.4          120.6          87.25
   0.03542               -45.4          31.08           57.7          57.84         -1.089         -15.27          131.2          13.76          176.4          120.6          87.24
   0.04251               -45.4          31.07          57.69          57.84          -1.09         -15.27          131.1          13.76          176.4          120.6          87.23
   0.04959               -45.4          31.06          57.68          57.84         -1.091         -15.27          131.1          13.77          176.4          120.6          87.21
   0.05667              -45.41          31.06          57.68          57.84         -1.093         -15.27          131.0          13.78          176.3          120.5           87.2
   0.06376              -45.41          31.05          57.67          57.84         -1.094         -15.26          130.9          13.79          176.3          120.5          87.19
   0.07084              -45.41          31.04          57.66          57.84         -1.095         -15.26          130.9           13.8          176.3          120.5          87.17
   0.07793              -45.42          31.03          57.66          57.84         -1.097         -15.26          130.8          13.81          176.3          120.5          87.16
   0.08501              -45.42          31.02          57.65          57.84         -1.099         -15.25          130.7          13.82          176.3          120.4          87.14
   0.09209              -45.43           31.0          57.64          57.84           -1.1         -15.25          130.6          13.83          176.2          120.4          87.12
   0.09918              -45.43          30.99          57.63          57.84         -1.102         -15.24          130.5          13.84          176.2          120.4           87.1
    0.1063              -45.44          30.98          57.62          57.85         -1.105         -15.24          130.4          13.85          176.2          120.3          87.08
    0.1133              -45.44          30.96          57.61          57.85         -1.107         -15.23          130.3          13.86          176.1          120.3          87.06
    0.1204              -45.45          30.95           57.6          57.85         -1.109         -15.23          130.2          13.88          176.1          120.3          87.03
    0.1275              -45.45          30.93          57.58          57.85         -1.112         -15.22          130.1           13.9          176.0          120.2          87.01
    0.1346              -45.46          30.91          57.57          57.85         -1.115         -15.21          129.9          13.91          176.0          120.2          86.98
    0.1417              -45.47          30.89          57.55          57.86         -1.118         -15.21          129.8          13.93          176.0          120.1          86.94
    0.1488              -45.48          30.86          57.53          57.86         -1.122          -15.2          129.6          13.96          175.9          120.1          86.91
    0.1559              -45.49          30.84          57.51          57.86         -1.126         -15.19          129.4          13.98          175.8          120.0          86.87
    0.1629               -45.5          30.81          57.49          57.86         -1.131         -15.18          129.2          14.01          175.8          119.9          86.82
      0.17              -45.51          30.78          57.47          57.87         -1.136         -15.17          128.9          14.04          175.7          119.8          86.77
    0.1771              -45.52          30.74          57.44          57.87         -1.141         -15.15          128.7          14.07          175.6          119.8          86.72
    0.1842              -45.53           30.7          57.41          57.87         -1.147         -15.14          128.4          14.11          175.5          119.7          86.65
    0.1913              -45.55          30.65          57.37          57.88         -1.154         -15.12          128.1          14.15          175.4          119.5          86.59
    0.1984              -45.57           30.6          57.33          57.88         -1.162         -15.11          127.7           14.2          175.3          119.4          86.51
    0.2054              -45.59          30.54          57.29          57.89         -1.171         -15.09          127.2          14.25          175.2          119.3          86.42
    0.2125              -45.61          30.48          57.24          57.89         -1.182         -15.06          126.8          14.31          175.0          119.1          86.32
    0.2196              -45.64           30.4          57.18           57.9         -1.193         -15.03          126.2          14.38          174.8          118.9           86.2
    0.2267              -45.67          30.31          57.11          57.91         -1.207          -15.0          125.6          14.46          174.6          118.7          86.06
    0.2338              -45.71          30.21          57.03          57.92         -1.223         -14.97          124.8          14.56          174.4          118.4          85.91
    0.2409              -45.75          30.09          56.94          57.93         -1.241         -14.93          123.9          14.67          174.1          118.1          85.72
    0.2479               -45.8          29.95          56.84          57.95         -1.263         -14.88          122.9           14.8          173.8          117.8          85.51
     0.255              -45.86          29.78          56.71          57.96         -1.289         -14.82          121.7          14.95          173.4          117.4          85.25
    0.2621              -45.93          29.58          56.55          57.98          -1.32         -14.75          120.2          15.14          172.9          116.9          84.94
